<?xml version="1.0" encoding="utf-8"?>
<!-- Generator: Adobe Illustrator 24.2.0, SVG Export Plug-In . SVG Version: 6.00 Build 0)  -->
<svg version="1.1" id="Capa_1" xmlns="http://www.w3.org/2000/svg" xmlns:xlink="http://www.w3.org/1999/xlink" x="0px" y="0px"
	 viewBox="0 0 512 512" style="enable-background:new 0 0 512 512;" xml:space="preserve">
<style type="text/css">
	.st0{fill:#212121;}
</style>
<g>
	<path class="st0" d="M263.5,316.91c0-38.19-18.16-66.43-55.7-77.01c27.39-13.04,41.67-32.8,41.67-63.53
		c0-60.6-45.3-75.37-97.57-75.37H7.99v304.25h147.93C211.4,405.24,263.5,378.73,263.5,316.91L263.5,316.91z M75.08,152.93h62.95
		c24.2,0,45.99,6.78,45.99,34.76c0,25.84-16.94,36.23-40.92,36.23H75.08V152.93z M75.06,353.57v-83.79h73.12
		c29.54,0,48.22,12.27,48.22,43.44c0,30.73-22.3,40.34-49.6,40.34L75.06,353.57L75.06,353.57z"/>
	<path class="st0" d="M396.45,411.01c52.79,0,86.97-23.71,103.42-74.09H446.3c-5.76,18.8-29.54,28.74-47.96,28.74
		c-35.56,0-54.25-20.77-54.25-56.07h159.4c0.27-3.57,0.51-7.44,0.51-11.31c0-65.16-38.24-119.5-107.55-119.5
		c-67.36,0-113.07,50.47-113.07,116.58C283.37,363.94,326.68,411.01,396.45,411.01z M394.56,224.47c30.49,0,45.82,17.85,48.38,47.06
		h-98.77C346.17,242.56,365.45,224.47,394.56,224.47L394.56,224.47z"/>
	<path class="st0" d="M331.79,116.97h123.75v29.96H331.79V116.97z"/>
</g>
</svg>
