<?xml version="1.0" encoding="utf-8"?>
<!-- Generator: Adobe Illustrator 24.2.0, SVG Export Plug-In . SVG Version: 6.00 Build 0)  -->
<svg version="1.1" id="Layer_1" xmlns="http://www.w3.org/2000/svg" xmlns:xlink="http://www.w3.org/1999/xlink" x="0px" y="0px"
	 viewBox="0 0 382 382" style="enable-background:new 0 0 382 382;" xml:space="preserve">
<style type="text/css">
	.st0{fill:#212121;}
</style>
<path class="st0" d="M340.9,8H41.1C22.8,8,8,22.8,8,41.1v299.8C8,359.2,22.8,374,41.1,374h299.8c18.3,0,33.1-14.8,33.1-33.1V41.1
	C374,22.8,359.2,8,340.9,8z M121.3,324c0,5.3-4.3,9.6-9.6,9.6h-41c-5.3,0-9.6-4.3-9.6-9.6V152.1c0-5.3,4.3-9.6,9.6-9.6h41
	c5.3,0,9.6,4.3,9.6,9.6V324z M91.1,126.3c-21.5,0-39-17.4-39-39s17.4-39,39-39s39,17.4,39,39S112.6,126.3,91.1,126.3z M335.6,324.8
	c0,4.9-4,8.9-8.9,8.9h-44c-4.9,0-8.9-4-8.9-8.9v-80.6c0-12,3.5-52.7-31.4-52.7c-27.1,0-32.6,27.8-33.7,40.3v93c0,4.9-4,8.9-8.9,8.9
	h-42.6c-4.9,0-8.9-4-8.9-8.9V151.3c0-4.9,4-8.9,8.9-8.9h42.6c4.9,0,8.9,4,8.9,8.9v15c10.1-15.1,25-26.7,56.8-26.7
	c70.5,0,70.1,65.8,70.1,102L335.6,324.8L335.6,324.8z"/>
</svg>
