<?xml version="1.0" encoding="utf-8"?>
<!-- Generator: Adobe Illustrator 24.2.0, SVG Export Plug-In . SVG Version: 6.00 Build 0)  -->
<svg version="1.1" id="Capa_1" xmlns="http://www.w3.org/2000/svg" xmlns:xlink="http://www.w3.org/1999/xlink" x="0px" y="0px"
	 viewBox="0 0 708 166" style="enable-background:new 0 0 708 166;" xml:space="preserve">
<style type="text/css">
	.st0{fill:#1A1A1A;}
</style>
<g>
	<path class="st0" d="M125.85,105.5c0,15.3-7.5,29.25-34.35,29.25H51.9v-102h39.6c22.8,0,31.35,11.85,31.35,24.9
		c0,10.5-5.4,20.4-20.4,21.45v2.4C120,82.55,125.85,92.3,125.85,105.5z M71.4,71.75h19.35c9,0,12.6-2.25,12.6-10.95
		c0-7.8-3.6-10.05-12.6-10.05H71.4V71.75z M106.35,102.8c0-10.8-4.35-13.05-14.85-13.05H71.4v25.5h20.1
		C102,115.25,106.35,113,106.35,102.8z"/>
	<path class="st0" d="M135.85,116.75h81v18h-81V116.75z"/>
	<path class="st0" d="M346.94,32.75v102h-19.5V77.9h-2.4l-24.6,49.2h-21.6l-24.6-49.2h-2.4v56.85h-19.5v-102h19.5l36.6,72.45h2.4
		l36.6-72.45H346.94z"/>
	<path class="st0" d="M355.95,96.05C355.95,72.5,369,56,393.3,56c24.3,0,37.35,16.5,37.35,40.05c0,23.55-13.05,40.2-37.35,40.2
		C369,136.25,355.95,119.6,355.95,96.05z M411.15,96.05c0-16.5-4.65-22.05-17.85-22.05c-13.2,0-17.85,5.55-17.85,22.05
		c0,16.5,4.65,22.2,17.85,22.2C406.5,118.25,411.15,112.55,411.15,96.05z"/>
	<path class="st0" d="M456.9,29.75v105h-19.5v-105H456.9z"/>
	<path class="st0" d="M488.4,29.75v15h-19.5v-15H488.4z M488.4,57.5v77.25h-19.5V57.5H488.4z"/>
	<path class="st0" d="M570.9,134.75h-19.5V75.5h-31.5v59.25h-19.5V57.5h70.5V134.75z"/>
	<path class="st0" d="M656.1,116v18.75h-29.25v-7.5c-3.75,5.4-9.6,9-20.85,9c-18.3,0-26.85-13.2-26.85-27c0-13.8,8.55-27,26.85-27
		c11.25,0,17.1,3.45,20.85,9v-16.5h-39V57.5h58.5V116H656.1z M626.85,109.25c0-6-3.9-10.8-14.1-10.8c-10.2,0-14.1,4.8-14.1,10.8
		s3.9,10.8,14.1,10.8C622.95,120.05,626.85,115.25,626.85,109.25z"/>
</g>
</svg>
