<?xml version="1.0" encoding="utf-8"?>
<!-- Generator: Adobe Illustrator 24.2.0, SVG Export Plug-In . SVG Version: 6.00 Build 0)  -->
<svg version="1.1" id="Layer_1" xmlns="http://www.w3.org/2000/svg" xmlns:xlink="http://www.w3.org/1999/xlink" x="0px" y="0px"
	 viewBox="0 0 169.06 169.06" style="enable-background:new 0 0 169.06 169.06;" xml:space="preserve">
<style type="text/css">
	.st0{fill:#212121;}
</style>
<g>
	<path class="st0" d="M120.62,4H48.44C23.94,4,4,23.94,4,48.44v72.17c0,24.51,19.94,44.44,44.44,44.44h72.17
		c24.51,0,44.45-19.94,44.45-44.44V48.44C165.06,23.94,145.12,4,120.62,4z M150.77,120.62c0,16.63-13.53,30.15-30.16,30.15H48.44
		c-16.62,0-30.15-13.53-30.15-30.15V48.44c0-16.62,13.53-30.15,30.15-30.15h72.17c16.62,0,30.16,13.53,30.16,30.15V120.62
		L150.77,120.62z"/>
	<path class="st0" d="M84.53,43.03c-22.88,0-41.5,18.62-41.5,41.5s18.62,41.5,41.5,41.5s41.5-18.62,41.5-41.5
		S107.41,43.03,84.53,43.03z M84.53,111.74c-15,0-27.21-12.2-27.21-27.21s12.2-27.21,27.21-27.21s27.21,12.2,27.21,27.21
		S99.53,111.74,84.53,111.74z"/>
	<path class="st0" d="M127.77,30.91c-2.75,0-5.46,1.11-7.4,3.07c-1.95,1.94-3.08,4.65-3.08,7.41c0,2.75,1.12,5.46,3.08,7.41
		c1.94,1.94,4.65,3.07,7.4,3.07c2.76,0,5.46-1.12,7.41-3.07c1.95-1.95,3.07-4.66,3.07-7.41c0-2.76-1.11-5.47-3.07-7.41
		C133.24,32.03,130.53,30.91,127.77,30.91z"/>
</g>
</svg>
